# File created by Blade
# Date/Time:  Wed Jan 21 16:20:01 2015
# Frame Rate: 120.000 fps
#------------------------------------------------------
:FULLY-SPECIFIED
:DEGREES
245
root 18.708144 36.064252 -20.094618 -190.360437 23.654369 -181.200672
Spine 12.510565 36.244238 5.737986
Head 26.804996 -0.095861 7.304654
LeftShoulder -14.423254 -24.215731 6.030647
LeftArm -21.927158 -3.460017 -36.118525
LeftForeArm -1.694633 0.000000 5.191293
LeftHand -6.024160 -0.000000 -0.557415
LeftHandThumb1 -26.253704 0.000000 33.147579
RightShoulder -5.656513 -14.203060 12.633576
RightArm 25.716469 -11.137264 34.670166
RightForeArm -56.334150 -0.000000 77.776997
RightHand 3.917543 -0.000000 27.248987
RightHandThumb1 -24.326973 -0.000000 -32.862282
LeftUpLeg -77.938334 -32.290583 -9.504307
LeftLeg 98.165397 -0.000000 -0.000000
LeftFoot 26.634539 18.673234 -0.480994
LeftToeBase -171.870340 -0.000000 0.000000
RightUpLeg 12.619700 3.954754 7.314671
RightLeg 1.039622 -0.000000 -0.000000
RightFoot -15.054525 -12.129880 13.450653
RightToeBase 21.387899 -0.000000 -0.000000
246
root 18.708810 36.060375 -20.138917 -190.433483 24.318194 -181.138830
Spine 12.513131 36.461810 5.926926
Head 26.837045 1.165737 7.658481
LeftShoulder -14.733973 -24.136405 6.254510
LeftArm -22.306341 -3.631230 -35.660180
LeftForeArm -1.814007 -0.000000 5.236533
LeftHand -6.069206 -0.000000 -0.478228
LeftHandThumb1 -26.253704 0.000000 33.147579
RightShoulder -5.772101 -14.035377 12.454955
RightArm 25.080246 -11.072779 35.281308
RightForeArm -56.627139 -0.000000 78.221302
RightHand 3.845542 -0.000000 27.262294
RightHandThumb1 -24.326973 -0.000000 -32.862282
LeftUpLeg -77.942960 -32.523421 -9.545178
LeftLeg 98.139872 -0.000000 -0.000000
LeftFoot 26.867427 18.605451 -0.677561
LeftToeBase -172.216920 -0.000000 0.000000
RightUpLeg 12.738953 4.653153 7.503529
RightLeg 1.145624 -0.000000 -0.000000
RightFoot -15.100053 -12.221093 13.367976
RightToeBase 21.270596 -0.000000 -0.000000
247
root 18.710291 36.056806 -20.184161 -190.534779 24.982903 -181.080757
Spine 12.550657 36.662993 6.132186
Head 26.923114 2.483753 8.006282
LeftShoulder -15.018363 -24.083403 6.455769
LeftArm -22.749332 -3.701278 -35.224660
LeftForeArm -2.008749 0.000000 5.290992
LeftHand -6.164896 -0.000000 -0.234555
LeftHandThumb1 -26.253704 0.000000 33.147579
RightShoulder -5.857625 -13.952395 12.306643
RightArm 24.479682 -10.909846 35.833405
RightForeArm -56.774083 -0.000000 78.619257
RightHand 3.730346 -0.000000 27.483279
RightHandThumb1 -24.326973 -0.000000 -32.862282
LeftUpLeg -77.914841 -32.755453 -9.623234
LeftLeg 98.109458 -0.000000 -0.000000
LeftFoot 27.117874 18.537300 -0.923840
LeftToeBase -172.574114 -0.000000 0.000000
RightUpLeg 12.900332 5.380281 7.704006
RightLeg 1.235877 -0.000000 -0.000000
RightFoot -15.147394 -12.300364 13.330942
RightToeBase 21.007207 -0.000000 -0.000000
248
root 18.714221 36.053014 -20.229250 -190.641236 25.666332 -181.022161
Spine 12.597703 36.871884 6.332331
Head 26.998245 3.799195 8.375270
LeftShoulder -15.370028 -23.978137 6.704226
LeftArm -23.119858 -3.874104 -34.823566
LeftForeArm -2.146436 -0.000000 5.374069
LeftHand -6.320517 -0.000000 -0.072660
LeftHandThumb1 -26.253704 0.000000 33.147579
RightShoulder -5.916433 -13.947827 12.172614
RightArm 23.933938 -10.723344 36.289848
RightForeArm -57.059718 -0.000000 78.965958
RightHand 3.722449 -0.000000 27.611934
RightHandThumb1 -24.326973 -0.000000 -32.862282
LeftUpLeg -77.855442 -32.908021 -9.734126
LeftLeg 98.068920 -0.000000 -0.000000
LeftFoot 27.273474 18.383342 -1.095287
LeftToeBase -172.960433 -0.000000 0.000000
RightUpLeg 13.057140 6.062832 7.891384
RightLeg 1.347189 -0.000000 -0.000000
RightFoot -15.177772 -12.313210 13.312680
RightToeBase 20.770002 -0.000000 -0.000000
249
root 18.717668 36.049486 -20.275143 -190.792718 26.322121 -180.957913
Spine 12.735426 37.067380 6.611044
Head 27.082552 5.104118 8.688896
LeftShoulder -15.663053 -23.954703 6.918717
LeftArm -23.561798 -4.022346 -34.395616
LeftForeArm -2.224703 -0.000000 5.416580
LeftHand -6.130579 -0.000000 0.025561
LeftHandThumb1 -26.253704 0.000000 33.147579
RightShoulder -5.984134 -13.939276 12.010530
RightArm 23.385867 -10.471943 36.791398
RightForeArm -57.302968 0.000000 79.284961
RightHand 3.880431 -0.000000 27.619798
RightHandThumb1 -24.326973 -0.000000 -32.862282
LeftUpLeg -77.708097 -33.045684 -9.915530
LeftLeg 98.015045 -0.000000 -0.000000
LeftFoot 27.388811 18.176711 -1.179554
LeftToeBase -173.317554 -0.000000 0.000000
RightUpLeg 13.270032 6.620731 8.060443
RightLeg 1.442596 -0.000000 -0.000000
RightFoot -15.205990 -12.229808 13.315040
RightToeBase 20.643932 -0.000000 -0.000000
250
root 18.724701 36.047087 -20.322654 -190.918761 26.965093 -180.898343
Spine 12.789822 37.238111 6.800617
Head 27.211103 6.453830 9.090336
LeftShoulder -15.997573 -23.908721 7.188969
LeftArm -23.997771 -4.174506 -33.996717
LeftForeArm -2.296816 -0.000000 5.479150
LeftHand -6.202277 -0.000000 0.139632
LeftHandThumb1 -26.253704 0.000000 33.147579
RightShoulder -6.065040 -13.931254 11.935304
RightArm 22.911887 -10.401930 37.039712
RightForeArm -57.309907 -0.000000 79.556303
RightHand 3.580980 -0.000000 27.737621
RightHandThumb1 -24.326973 -0.000000 -32.862282
LeftUpLeg -77.605006 -33.268128 -10.050856
LeftLeg 97.940328 -0.000000 -0.000000
LeftFoot 27.574545 18.052817 -1.351497
LeftToeBase -173.540912 -0.000000 0.000000
RightUpLeg 13.464861 7.041579 8.190379
RightLeg 1.520282 -0.000000 -0.000000
RightFoot -15.197156 -12.007974 13.267773
RightToeBase 20.833452 -0.000000 -0.000000
251
root 18.730518 36.046511 -20.373704 -191.075321 27.638887 -180.850137
Spine 12.888409 37.430937 7.029722
Head 27.365140 7.803318 9.433878
LeftShoulder -16.347774 -23.831000 7.444859
LeftArm -24.388406 -4.459160 -33.565438
LeftForeArm -2.291485 -0.000000 5.461062
LeftHand -6.285712 -0.000000 0.178167
LeftHandThumb1 -26.253704 0.000000 33.147579
RightShoulder -6.167641 -13.917170 11.854566
RightArm 22.528440 -10.236100 37.306145
RightForeArm -57.588754 0.000000 79.635823
RightHand 3.791797 -0.000000 27.492216
RightHandThumb1 -24.326973 -0.000000 -32.862282
LeftUpLeg -77.447121 -33.427096 -10.235498
LeftLeg 97.849990 -0.000000 -0.000000
LeftFoot 27.593388 17.949703 -1.492426
LeftToeBase -173.927836 -0.000000 0.000000
RightUpLeg 13.706520 7.365271 8.280029
RightLeg 1.556325 -0.000000 -0.000000
RightFoot -15.134946 -11.733659 13.240368
RightToeBase 20.554150 -0.000000 -0.000000
252
root 18.737480 36.048027 -20.420732 -191.254032 28.329685 -180.805859
Spine 13.044860 37.646686 7.291360
Head 27.539828 9.133483 9.730904
LeftShoulder -16.687991 -23.804160 7.713770
LeftArm -24.824161 -4.706736 -33.164901
LeftForeArm -2.322766 0.000000 5.465159
LeftHand -6.273725 -0.000000 0.256881
LeftHandThumb1 -26.253704 0.000000 33.147579
RightShoulder -6.195382 -13.836059 11.730455
RightArm 22.046826 -10.062821 37.670383
RightForeArm -57.690783 -0.000000 79.783622
RightHand 3.898954 -0.000000 27.780515
RightHandThumb1 -24.326973 -0.000000 -32.862282
LeftUpLeg -77.253176 -33.549636 -10.434848
LeftLeg 97.729401 -0.000000 -0.000000
LeftFoot 27.652647 17.758861 -1.627624
LeftToeBase -174.100446 -0.000000 0.000000
RightUpLeg 13.965023 7.565958 8.340493
RightLeg 1.578029 -0.000000 -0.000000
RightFoot -15.040284 -11.252388 13.218346
RightToeBase 20.810048 -0.000000 -0.000000
253
root 18.742307 36.053349 -20.467798 -191.467356 29.042857 -180.776399
Spine 13.277378 37.903199 7.633577
Head 27.764219 10.471908 10.001280
LeftShoulder -16.971096 -23.786304 7.881626
LeftArm -25.250310 -4.775118 -32.809474
LeftForeArm -2.507654 0.000000 5.496014
LeftHand -6.279796 -0.000000 0.259350
LeftHandThumb1 -26.253704 0.000000 33.147579
RightShoulder -6.244886 -13.731472 11.577766
RightArm 21.606485 -9.902130 38.035317
RightForeArm -57.536337 0.000000 79.893085
RightHand 3.846108 0.000000 27.740658
RightHandThumb1 -24.326973 -0.000000 -32.862282
LeftUpLeg -76.983922 -33.611686 -10.696586
LeftLeg 97.578170 -0.000000 -0.000000
LeftFoot 27.644956 17.685519 -1.765881
LeftToeBase -174.204795 -0.000000 0.000000
RightUpLeg 14.245405 7.678863 8.366101
RightLeg 1.597785 -0.000000 -0.000000
RightFoot -14.902413 -10.773598 13.264961
RightToeBase 20.541723 -0.000000 -0.000000
254
root 18.749879 36.056191 -20.509397 -191.570900 29.801996 -180.759025
Spine 13.302238 38.234964 7.810353
Head 28.033640 11.766929 10.374813
LeftShoulder -17.269130 -23.759355 8.166195
LeftArm -25.707739 -4.877344 -32.489534
LeftForeArm -2.655299 -0.000000 5.514885
LeftHand -6.301256 -0.000000 0.314366
LeftHandThumb1 -26.253704 0.000000 33.147579
RightShoulder -6.355597 -13.719218 11.534754
RightArm 21.279400 -9.672262 38.288745
RightForeArm -57.575738 -0.000000 79.938088
RightHand 3.751447 -0.000000 28.231770
RightHandThumb1 -24.326973 -0.000000 -32.862282
LeftUpLeg -76.862024 -33.654972 -10.856081
LeftLeg 97.414398 -0.000000 -0.000000
LeftFoot 27.623329 17.549011 -1.736036
LeftToeBase -174.361346 -0.000000 0.000000
RightUpLeg 14.437018 7.993811 8.414175
RightLeg 1.566943 -0.000000 -0.000000
RightFoot -14.783895 -10.359551 13.298035
RightToeBase 20.857475 -0.000000 -0.000000
